<svg xmlns="http://www.w3.org/2000/svg" version="1.1" xmlns:xlink="http://www.w3.org/1999/xlink" xmlns:svgjs="http://svgjs.dev/svgjs" width="2000" height="1500" viewBox="0 0 2000 1500"><rect width="2000" height="1500" fill="#131313"></rect><g transform="matrix(0.75,0,0,0.75,249.090909090909,441.1121508480693)"><svg viewBox="0 0 396 163" data-background-color="#131313" preserveAspectRatio="xMidYMid meet" height="823" width="2000" xmlns="http://www.w3.org/2000/svg" xmlns:xlink="http://www.w3.org/1999/xlink"><g id="tight-bounds" transform="matrix(1,0,0,1,0.2400000000000091,0.06941176470589028)"><svg viewBox="0 0 395.52 162.86117647058822" height="162.86117647058822" width="395.52"><g><svg viewBox="0 0 395.52 162.86117647058822" height="162.86117647058822" width="395.52"><g><svg viewBox="0 0 395.52 162.86117647058822" height="162.86117647058822" width="395.52"><g id="textblocktransform"><svg viewBox="0 0 395.52 162.86117647058822" height="162.86117647058822" width="395.52" id="textblock"><g><svg viewBox="0 0 395.52 162.86117647058822" height="162.86117647058822" width="395.52"><g transform="matrix(1,0,0,1,0,0)"><svg width="395.52" viewBox="6.55 -41.5 110.49000000000001 45.5" height="162.86117647058822" data-palette-color="#f4dcfe"><path d="M6.55-2.85L6.55-2.85Q6.55-4.65 7.13-7.53 7.7-10.4 8.63-13.73 9.55-17.05 10.75-20.53 11.95-24 13.2-27.05 14.45-30.1 15.65-32.4 16.85-34.7 17.8-35.7L17.8-35.7Q18.3-35.65 19.13-35.33 19.95-35 20.8-34.55 21.65-34.1 22.35-33.58 23.05-33.05 23.25-32.6L23.25-32.6Q21.8-31.3 20.38-28.68 18.95-26.05 17.63-22.7 16.3-19.35 15.15-15.63 14-11.9 13.15-8.4 12.3-4.9 11.83-1.9 11.35 1.1 11.35 2.95L11.35 2.95Q11.35 3.8 11.5 4L11.5 4Q10.4 3.95 9.9 3.63 9.4 3.3 9.13 2.93 8.85 2.55 8.63 2.18 8.4 1.8 7.95 1.6L7.95 1.6Q7.6 1.45 7.35 0.9 7.1 0.35 6.93-0.33 6.75-1 6.65-1.7 6.55-2.4 6.55-2.85ZM19.65-3.2L19.65-3.2Q19.65-5.4 20.7-9.38 21.75-13.35 23.65-18.65L23.65-18.65Q26.75-27.1 29.47-32.73 32.2-38.35 34.8-41.5L34.8-41.5Q35.4-41.4 36.27-41 37.15-40.6 38-40.13 38.85-39.65 39.52-39.15 40.2-38.65 40.4-38.35L40.4-38.35Q36.5-33.75 33.55-28.45 30.6-23.15 28.15-16.3L28.15-16.3Q26.05-10.4 24.95-5.68 23.85-0.95 23.85 2.2L23.85 2.2Q23.85 3.05 23.85 3.25 23.85 3.45 23.9 3.65L23.9 3.65Q23.2 3.55 22.7 3.3 22.2 3.05 22.05 2.7L22.05 2.7Q21.95 2.45 21.5 1.98 21.05 1.5 20.7 1.25L20.7 1.25Q20.25 0.95 19.95-0.33 19.65-1.6 19.65-3.2ZM31.45-0.85L31.45-0.85Q31.45-2.6 31.8-4.98 32.14-7.35 32.82-10.05 33.49-12.75 34.42-15.7 35.34-18.65 36.5-21.6L36.5-21.6Q37.5-24.25 38.82-26.95 40.14-29.65 41.7-32.25 43.25-34.85 44.92-37.2 46.59-39.55 48.3-41.5L48.3-41.5Q49.09-41.5 50.02-41.3 50.95-41.1 51.82-40.78 52.7-40.45 53.42-40 54.14-39.55 54.59-39.1L54.59-39.1Q50.84-35.25 47.84-31.33 44.84-27.4 43.09-23.95L43.09-23.95Q42.14-22.05 41.37-20.4 40.59-18.75 39.95-17.13 39.3-15.5 38.77-13.88 38.25-12.25 37.8-10.45L37.8-10.45Q47.39-22.7 52.05-22.7L52.05-22.7Q53.34-22.7 54.84-21.85 56.34-21 57.5-19.55L57.5-19.55Q55.95-17.85 54.3-15.45 52.64-13.05 51.27-10.63 49.89-8.2 49.02-6.13 48.14-4.05 48.14-3.05L48.14-3.05Q48.14-2.55 48.3-2.38 48.45-2.2 48.95-2.2L48.95-2.2Q49.7-2.2 50.14-2.4 50.59-2.6 50.7-2.6L50.7-2.6Q50.95-2.2 51-2.05 51.05-1.9 51.05-1.8L51.05-1.8Q51.05-1.6 50.45-1.23 49.84-0.85 49.02-0.48 48.2-0.1 47.39 0.2 46.59 0.5 46.2 0.5L46.2 0.5Q45.7 0.5 45.2 0.23 44.7-0.05 44.32-0.5 43.95-0.95 43.72-1.5 43.5-2.05 43.5-2.65L43.5-2.65Q43.5-3.4 43.92-4.88 44.34-6.35 45.09-8.33 45.84-10.3 46.89-12.65 47.95-15 49.14-17.45L49.14-17.45Q49.14-17.65 48.95-17.65L48.95-17.65Q48.8-17.65 48.17-17.25 47.55-16.85 47-16.45L47-16.45Q45.2-15.1 43.37-13.13 41.55-11.15 39.82-8.8 38.09-6.45 36.57-3.83 35.05-1.2 33.95 1.45L33.95 1.45Q33.8 1.8 33.49 2.1 33.2 2.4 32.99 2.4L32.99 2.4Q32.84 2.4 32.57 2.05 32.3 1.7 32.07 1.18 31.84 0.65 31.64 0.1 31.45-0.45 31.45-0.85ZM74.59-20.2L74.59-20.2Q75.09-20.2 75.77-20.03 76.44-19.85 76.99-19.58 77.54-19.3 77.92-19 78.29-18.7 78.29-18.45L78.29-18.45Q77.29-16.35 76.44-14.23 75.59-12.1 74.99-10.15 74.39-8.2 74.07-6.5 73.74-4.8 73.74-3.55L73.74-3.55Q73.74-2.15 74.04-1.23 74.34-0.3 75.04 0.1L75.04 0.1Q74.44 0.5 73.49 0.75 72.54 1 71.79 1L71.79 1Q69.09 1 69.09-2.7L69.09-2.7Q69.09-5.55 70.99-10.5L70.99-10.5Q69.99-8.2 68.69-6.18 67.39-4.15 66.04-2.6 64.69-1.05 63.32-0.08 61.94 0.9 60.79 1.1L60.79 1.1Q58.94 1 57.79-0.68 56.64-2.35 56.64-4.95L56.64-4.95Q56.64-7.75 57.84-10.85 59.04-13.95 60.92-16.6 62.79-19.25 64.99-21.03 67.19-22.8 69.24-22.9L69.24-22.9Q69.74-22.75 70.37-22.3 70.99-21.85 71.57-21.25 72.14-20.65 72.54-20.03 72.94-19.4 72.99-18.95L72.99-18.95Q70.99-18.65 68.87-17 66.74-15.35 65.02-13.03 63.29-10.7 62.19-8.05 61.09-5.4 61.09-3.1L61.09-3.1Q61.09-2.15 61.79-1.9L61.79-1.9Q63.24-2.2 65.14-4.38 67.04-6.55 69.74-11.1L69.74-11.1Q70.24-12 70.87-13.1 71.49-14.2 72.14-15.4 72.79-16.6 73.42-17.82 74.04-19.05 74.59-20.2ZM109.74-15.35L109.74-15.35Q108.94-15.3 107.79-14.33 106.64-13.35 105.32-11.83 103.99-10.3 102.57-8.45 101.14-6.6 99.82-4.78 98.49-2.95 97.34-1.35 96.19 0.25 95.39 1.2L95.39 1.2Q94.29 0.75 93.49-0.13 92.69-1 92.34-2.3L92.34-2.3Q92.59-3.85 93.04-5.53 93.49-7.2 94.22-9 94.94-10.8 96.02-12.78 97.09-14.75 98.64-16.95L98.64-16.95Q97.89-16.9 96.59-15.88 95.29-14.85 93.79-13.23 92.29-11.6 90.69-9.58 89.09-7.55 87.69-5.6L87.69-5.6Q85.84-3 84.62-1.05 83.39 0.9 82.84 1.25L82.84 1.25Q81.54 0.3 81.04-0.8 80.54-1.9 80.29-3.25L80.29-3.25Q80.34-4.45 80.67-6.25 80.99-8.05 81.59-9.95L81.59-9.95Q82.74-13.6 84.57-17.2 86.39-20.8 88.09-23.8L88.09-23.8Q89.49-23.5 90.62-22.85 91.74-22.2 92.99-20.95L92.99-20.95Q92.49-19.4 91.44-17.68 90.39-15.95 89.24-14.05 88.09-12.15 87.14-10.15 86.19-8.15 85.89-6.1L85.89-6.1Q87.29-8.1 89.22-10.7 91.14-13.3 93.17-15.6 95.19-17.9 97.19-19.5 99.19-21.1 100.79-21.1L100.79-21.1Q101.39-21.1 102.09-20.9 102.79-20.7 103.39-20.4 103.99-20.1 104.39-19.83 104.79-19.55 104.84-19.4L104.84-19.4Q104.59-18.4 103.67-16.68 102.74-14.95 101.69-13.05 100.64-11.15 99.74-9.38 98.84-7.6 98.69-6.55L98.69-6.55Q101.14-9.9 103.29-12.63 105.44-15.35 107.34-17.3 109.24-19.25 110.87-20.3 112.49-21.35 113.94-21.35L113.94-21.35Q114.94-21.35 115.82-20.83 116.69-20.3 117.04-19.3L117.04-19.3Q116.59-17.8 115.57-15.7 114.54-13.6 113.49-11.28 112.44-8.95 111.62-6.7 110.79-4.45 110.79-2.65L110.79-2.65Q110.79-1.6 111.09-1.28 111.39-0.95 111.94-0.95L111.94-0.95Q112.54-0.95 113.07-1.18 113.59-1.4 113.84-1.4L113.84-1.4Q114.14-1.2 114.19-0.9 114.24-0.6 114.24-0.35L114.24-0.35Q113.24 0.45 112.19 0.98 111.14 1.5 109.84 1.5L109.84 1.5Q108.64 1.5 107.87 1.1 107.09 0.7 106.59 0 106.09-0.7 105.89-1.6 105.69-2.5 105.69-3.55L105.69-3.55Q105.69-5.25 106.14-6.93 106.59-8.6 107.22-10.13 107.84-11.65 108.54-12.98 109.24-14.3 109.74-15.35Z" opacity="1" transform="matrix(1,0,0,1,0,0)" fill="#f4dcfe" class="wordmark-text-0" data-fill-palette-color="primary" id="text-0"></path></svg></g></svg></g></svg></g></svg></g><g></g></svg></g><defs></defs></svg><rect width="395.52" height="162.86117647058822" fill="none" stroke="none" visibility="hidden"></rect></g></svg></g></svg>